PathFileType	3	(X/Y/Z)	D:\minhoCalibration\240510\subject4_KPNP\preferred\preferred12.trc
DataRate	CameraRate	NumFrames	NumMarkers	Units	OrigDataRate	OrigDataStartFrame	OrigNumFrames
200.0	200.0	34	10	mm	200.0	283	82	
Frame#	Time	Left_Ankle_Outer1			Left_Ankle_Inner1			Left_Knee_Outer1			Left_Knee_Inner1			Left_Wrist1			Right_Wrist1			Right_Knee_Inner1			Right_Knee_Outer1			Right_Ankle_Inner1			Right_Ankle_Outer1			
		X1	Y1	Z1	X2	Y2	Z2	X3	Y3	Z3	X4	Y4	Z4	X5	Y5	Z5	X6	Y6	Z6	X7	Y7	Z7	X8	Y8	Z8	X9	Y9	Z9	X10	Y10	Z10	
283	1.405	-491.15179	1047.7396	263.54367	-419.30438	971.72443	266.51727	-344.5816	1137.0098	743.61621	-283.96017	1056.4559	736.56921	-464.10809	1212.5096	1110.6891	-437.27374	892.1817	1311.5881	-329.63196	536.60559	1065.7985	-323.63635	551.23694	1177.1969	-528.1402	103.24485	1164.3188	-515.02441	119.25958	1217.6938
284	1.41	-492.85828	1030.8529	262.25229	-417.61963	958.59235	265.92111	-350.09839	1134.9348	741.3999	-286.97775	1055.4281	735.67999	-468.92535	1211.6572	1108.4863	-435.79001	890.19666	1309.2476	-330.33975	536.61328	1062.1724	-321.77072	550.97058	1173.6501	-528.12262	103.5072	1164.1467	-514.68646	119.58157	1216.7827
285	1.415	-494.59216	1013.7928	261.22791	-416.46478	944.85962	265.89963	-353.52179	1131.7618	739.25342	-290.46243	1052.2671	734.40656	-473.28482	1210.5228	1106.3728	-433.96979	888.88556	1306.7004	-331.10901	536.38318	1059.1251	-319.94888	550.68701	1170.1158	-528.42957	103.46178	1163.5742	-514.53046	120.12541	1216.5822
286	1.42	-496.49948	996.29364	260.52609	-415.56622	930.89923	265.83621	-356.41522	1127.8391	736.16998	-294.68417	1047.4857	733.12671	-477.70712	1209.083	1104.2428	-431.93756	888.07336	1304.2366	-331.35974	536.26447	1056.3113	-318.13745	550.52386	1166.994	-528.5871	103.54458	1163.7506	-514.16016	120.35732	1216.5719
287	1.425	-498.79602	978.51843	260.63538	-415.14459	916.73914	266.18506	-358.87082	1123.5345	732.62927	-299.24152	1042.0977	731.95258	-481.86624	1207.6097	1102.2377	-429.61392	887.52411	1301.7734	-331.73093	535.79114	1054.0525	-316.45883	550.29688	1163.8634	-528.36139	103.60474	1164.2247	-513.40289	120.27566	1216.6733
288	1.43	-501.65964	960.45557	261.57416	-415.24707	902.39331	267.02301	-361.60251	1119.0249	729.0567	-303.97754	1036.3992	731.17798	-486.12665	1205.2383	1100.1576	-426.94376	887.43896	1299.5745	-331.3526	534.84058	1051.7721	-314.84567	550.06879	1161.4921	-528.80334	103.60304	1165.5997	-512.88794	120.67458	1217.8949
289	1.435	-504.68277	941.65759	263.11639	-415.86972	887.83606	268.06888	-364.73352	1114.4485	726.01849	-308.09918	1030.666	730.87073	-490.15353	1202.8191	1098.0555	-424.06754	887.63	1297.8005	-330.57181	533.96295	1049.7554	-313.30795	549.62836	1159.5963	-528.88556	103.62704	1167.3174	-512.0932	120.81908	1219.2822
290	1.44	-508.04712	922.60083	265.40955	-417.0477	872.97064	269.67331	-368.05582	1109.7003	723.35242	-312.02917	1025.2694	730.56372	-494.38269	1200.1724	1095.9978	-421.07184	888.01825	1296.3387	-329.97726	532.60852	1048.1796	-311.87473	549.05792	1157.7958	-528.85669	103.65527	1169.2498	-511.01367	121.00368	1220.8099
291	1.445	-511.96927	903.12073	268.35468	-419.72168	857.68738	271.01859	-371.93448	1104.8053	721.03784	-315.46002	1020.0275	729.92297	-498.48969	1197.4087	1093.9231	-417.97482	888.53833	1294.9357	-329.40073	531.17511	1047.0803	-310.33881	548.20605	1156.3861	-528.8244	103.69472	1171.356	-510.01065	121.09949	1222.5742
292	1.45	-516.05487	883.42767	272.15646	-422.90643	841.74335	274.78293	-375.89084	1099.6105	718.69971	-318.49295	1014.9146	728.96045	-501.88257	1193.9592	1091.8319	-414.98798	889.12164	1293.5562	-328.11697	529.71442	1045.7333	-308.76477	547.20374	1154.9541	-528.33105	103.40071	1173.5498	-508.79013	120.83921	1224.0013
293	1.455	-521.74719	864.29034	277.56793	-425.99814	824.81958	277.22427	-379.67426	1094.4584	716.21338	-320.88428	1010.2534	727.88171	-505.53812	1190.4803	1089.7231	-412.13885	889.77393	1292.2775	-326.79422	527.74896	1044.3909	-307.50299	546.03363	1153.2213	-528.48303	103.25075	1175.1714	-507.79419	121.06685	1225.9359
294	1.46	-526.07019	843.49561	282.29102	-429.46259	807.25415	281.97006	-383.68927	1088.7018	713.59711	-322.42117	1005.862	726.98132	-509.06467	1187.3262	1087.7761	-409.49591	890.36499	1291.0345	-325.76736	526.0946	1043.2644	-305.80215	544.75647	1151.7308	-528.14825	103.26328	1177.1426	-506.85614	120.98713	1227.4969
295	1.465	-531.5744	823.25909	288.50317	-434.96017	788.89514	287.70001	-387.36978	1082.9567	710.92963	-325.4115	1000.7893	725.18243	-511.85934	1183.4559	1085.769	-406.96384	890.8493	1289.8119	-324.87125	524.35236	1042.1718	-304.26648	543.51599	1150.1848	-528.19543	102.92371	1178.8367	-506.04575	120.75472	1228.7926
296	1.47	-537.47638	803.12225	295.58533	-440.53769	771.38904	293.56671	-391.47791	1076.8833	708.20844	-327.43045	996.0766	723.58594	-514.85455	1179.9017	1083.7288	-404.69418	891.15497	1288.7917	-323.84644	522.50708	1040.7084	-302.7359	542.20526	1148.5662	-528.16876	102.25638	1180.0916	-505.35666	120.4277	1229.7565
297	1.475	-544.24268	782.97943	303.85147	-445.90619	752.66901	299.52719	-395.43225	1070.2936	705.42206	-329.61978	990.99176	721.4259	-517.69531	1176.7367	1081.7765	-402.62094	891.21301	1287.8964	-323.5101	520.89819	1039.5281	-301.28659	540.86316	1146.9794	-528.49231	101.57106	1180.8646	-505.06259	119.86813	1230.4196
298	1.48	-550.41425	762.82568	311.99655	-451.80066	733.74176	306.94119	-398.91458	1063.6471	702.80994	-331.7171	985.82751	719.49573	-520.69226	1174.0161	1079.9114	-400.76071	891.06006	1287.1984	-322.88834	519.42651	1037.9377	-299.76358	539.40454	1145.3333	-528.94702	100.93768	1181.5614	-505.08917	119.2374	1230.87
299	1.485	-556.65082	741.52045	320.71817	-458.03937	714.43018	315.08768	-402.63934	1056.4087	700.33539	-334.10419	980.13434	717.37695	-523.3645	1171.0563	1078.1322	-399.11362	890.66058	1286.7094	-322.42258	517.76227	1036.2361	-298.38873	537.91852	1143.7224	-529.4176	99.737549	1181.7675	-505.29324	118.35832	1231.0647
300	1.49	-563.34302	720.71014	330.36871	-464.62396	694.80304	324.01379	-406.50586	1048.9252	698.15131	-336.37958	974.11035	715.33093	-525.85699	1168.1897	1076.4099	-397.62164	889.89331	1286.2552	-322.43829	515.9801	1034.7375	-297.00027	536.31787	1142.1936	-529.85535	98.745514	1181.8091	-505.67114	117.41498	1230.9707
301	1.495	-570.26337	700.14484	340.75485	-471.28592	675.0589	333.56491	-409.97687	1041.1268	695.97211	-339.49615	967.17206	713.21753	-528.20264	1165.0765	1074.6748	-396.2482	888.9577	1286.0105	-322.27017	514.63696	1033.1985	-295.76712	534.60864	1140.7222	-530.61493	97.685097	1181.7856	-506.26443	116.46277	1230.8442
302	1.5	-577.13318	679.5791	351.70544	-477.48315	655.07214	344.4852	-413.40094	1033.0662	693.90845	-342.31802	960.02228	711.24365	-530.27997	1161.8199	1073.1042	-394.97934	887.85254	1285.6211	-322.24353	512.89117	1031.7377	-294.54727	532.72247	1139.3768	-531.48413	96.383827	1181.8256	-506.96933	115.29427	1230.5974
303	1.505	-585.63275	659.70142	363.8613	-484.23105	635.10992	355.3121	-417.25452	1024.5695	691.94965	-345.5105	952.23181	709.44647	-531.86237	1158.0076	1071.3942	-393.80457	886.55646	1285.2614	-321.97891	511.1763	1030.3715	-293.30673	530.76855	1138.0526	-532.07953	95.228775	1181.6466	-507.64035	114.10183	1230.3973
304	1.51	-591.13843	638.41522	375.39273	-491.146	614.84558	366.63394	-421.13831	1015.6734	689.9928	-349.40479	943.85327	707.77209	-533.51575	1154.2598	1069.7917	-392.79639	885.16016	1284.8152	-322.03708	509.41904	1029.2937	-292.17062	528.62012	1137.0092	-532.71454	93.954315	1181.5021	-508.6561	113.00887	1230.4551
305	1.515	-597.07404	618.21368	387.75388	-497.96674	594.64203	378.52362	-424.93738	1006.4543	688.07129	-352.74454	935.39093	706.21613	-534.89233	1150.2432	1067.9983	-391.91254	883.64575	1284.2101	-321.23035	507.54196	1027.9656	-291.01599	526.36115	1135.8361	-533.6571	92.547157	1181.2954	-509.19873	111.59218	1230.053
306	1.52	-604.56354	598.54419	401.14389	-504.26007	574.4632	391.00943	-429.30811	996.89124	686.19232	-356.64059	926.59711	704.78113	-536.8205	1146.7317	1066.0457	-391.15707	882.07996	1283.4425	-320.42654	505.48935	1026.8575	-289.67688	524.15778	1135.2163	-534.16876	91.3125	1181.1261	-510.1304	110.68807	1230.311
307	1.525	-610.54803	577.8175	414.25647	-511.9617	553.97339	402.59055	-434.10428	986.88287	684.37756	-360.45087	917.36963	703.28168	-537.97668	1142.2501	1063.9178	-390.57513	880.36499	1282.4984	-319.52829	503.31943	1025.9634	-288.64221	521.9198	1134.3748	-534.64581	90.001106	1181.1101	-510.80942	109.43735	1230.377
308	1.53	-617.56628	558.16522	428.62903	-515.69513	534.25592	418.59985	-438.77319	976.23657	682.54956	-364.57901	907.82532	701.81757	-539.21442	1137.6884	1062.2057	-390.14435	878.64105	1281.5194	-318.80634	501.10977	1025.5128	-287.37695	519.7843	1133.6932	-535.37354	88.607727	1181.298	-511.44672	108.40003	1230.6156
309	1.535	-623.35406	538.07654	442.37936	-521.84515	514.80023	432.63016	-443.5954	965.22748	680.85693	-368.64178	898.11072	700.63275	-540.35913	1133.3522	1060.2041	-389.77151	876.67963	1280.2533	-317.11896	498.72128	1024.7662	-286.2319	517.60992	1133.1641	-535.52698	87.821587	1181.7666	-512.0968	107.27179	1230.9395
310	1.54	-629.43463	518.8385	457.00345	-529.83044	494.0943	445.07642	-448.42587	953.79132	679.25073	-373.00327	888.08228	699.51257	-541.21063	1129.0322	1058.4525	-389.48224	874.60229	1279.0477	-315.90253	496.33099	1024.4261	-285.01236	515.51501	1132.824	-536.16132	86.432281	1182.0403	-512.60468	106.201	1231.2594
311	1.545	-635.18488	499.84164	471.29434	-533.40002	476.54123	462.55341	-454.21228	942.07837	678.24139	-376.83142	877.83856	698.56012	-542.89331	1125.8416	1056.3279	-389.24875	872.43811	1277.7783	-314.3002	494.00278	1023.9968	-283.90445	513.40887	1132.436	-536.34729	85.465752	1182.4214	-513.08264	105.21999	1231.6654
312	1.55	-642.22382	481.55099	487.00504	-542.71338	455.22034	473.81931	-459.0961	929.70001	676.92322	-380.97421	867.04144	697.87982	-544.13226	1122.4849	1054.382	-388.9776	870.26129	1276.3209	-312.62439	491.70239	1023.7325	-282.81384	511.31039	1132.2156	-536.61127	84.405304	1182.6771	-513.4649	104.20456	1232.1091
313	1.555	-648.25031	463.83942	502.24136	-548.26013	437.62064	490.26318	-465.2048	917.32111	676.4751	-385.14505	856.22504	697.5354	-545.32428	1118.9503	1052.4188	-388.72574	868.13385	1274.9406	-310.86752	489.25742	1023.443	-281.66864	509.32593	1132.0992	-536.84851	83.419991	1183.1353	-513.83215	103.28419	1232.5101
314	1.56	-653.68689	445.72479	516.29199	-553.38373	419.93509	506.92117	-470.44385	904.58252	675.9082	-389.13782	845.01044	697.38593	-546.72021	1115.4149	1050.4669	-388.32962	866.11841	1273.3931	-309.28561	487.03778	1023.2351	-280.53702	507.36099	1132.0596	-537.38605	82.047363	1183.2831	-514.16632	102.38493	1232.9825
315	1.565	-659.9657	428.71213	531.75909	-559.83435	402.2207	522.45837	-475.81244	891.48071	675.70972	-394.06409	833.16559	697.58466	-548.3291	1112.095	1048.5648	-387.93115	864.20111	1271.9075	-307.65982	484.95868	1023.0268	-279.35245	505.43951	1131.9492	-537.85834	81.272141	1183.9036	-514.57288	101.53582	1233.4564
316	1.57	-665.7392	411.96744	546.73981	-565.80383	385.11664	538.55005	-481.21558	878.08954	675.80493	-397.88342	821.35028	698.20496	-550.01031	1109.0089	1046.6741	-387.4704	862.48859	1270.4137	-306.4191	482.92273	1022.9073	-278.01227	503.56818	1131.8452	-537.40973	80.135971	1184.2825	-514.99524	100.75918	1233.8264
